<svg xmlns="http://www.w3.org/2000/svg" class="logo" data-name="Layer 1" viewBox="0 0 502 502"><circle cx="251" cy="251" r="250" fill="#ecff00" class="cls-1"/><path fill="#0e2433" d="M274 120H166.57v212.53h59.35v61.52h48c44.29 0 80.33-33.88 80.33-75.52v-123c.04-41.69-36-75.53-80.25-75.53m-8.65 256.79h-22.12V271h22.08ZM337 318.6c0 29.38-23.7 53.68-54.37 57.6v-44.05c24.29-2.67 47.57-15.88 54.37-32.58Zm0-61.6c0 29.38-23.7 53.68-54.37 57.6v-44.04c24.27-2.67 47.55-15.88 54.37-32.56Zm-63-3.32h-48v61.53h-42v-178h90c34.75 0 63 26.12 63 58.22s-28.29 58.26-63 58.26Z" class="cls-2"/></svg>