<?xml version="1.0" standalone="no"?>
<!DOCTYPE svg PUBLIC "-//W3C//DTD SVG 20010904//EN"
  "http://www.w3.org/TR/2001/REC-SVG-20010904/DTD/svg10.dtd">
<svg height="512.000000pt" preserveAspectRatio="xMidYMid meet"
     version="1.0" viewBox="0 0 512.000000 512.000000" width="512.000000pt"
     xmlns="http://www.w3.org/2000/svg">
  <metadata>
    Created by potrace 1.14, written by Peter Selinger 2001-2017
  </metadata>
  <g fill="#000000"
     stroke="none" transform="translate(0.000000,512.000000) scale(0.100000,-0.100000)">
    <path d="M4230 3735 c0 -74 3 -135 8 -136 4 0 126 -1 272 -2 l265 -2 -1 -805
c0 -738 -3 -901 -18 -969 -21 -94 -59 -159 -118 -199 -38 -25 -118 -63 -133
-61 -3 0 -20 -3 -38 -6 -57 -11 -190 -13 -257 -4 -53 7 -151 32 -292 76 -17 5
-18 -7 -18 -160 0 -91 3 -168 8 -170 4 -3 32 -8 62 -12 30 -4 57 -8 60 -10 28
-17 438 -27 515 -12 282 53 475 219 549 471 20 69 21 94 24 1104 l3 1032 -446
0 -445 0 0 -135z"/>
    <path d="M4 3851 c-2 -2 -4 -585 -4 -1295 l0 -1291 363 1 c462 2 563 8 730 40
440 86 763 393 892 848 18 62 18 63 28 116 4 19 10 49 13 65 10 52 12 347 3
420 -40 329 -160 583 -366 775 -137 129 -347 238 -527 274 -113 24 -189 34
-306 42 -97 7 -819 11 -826 5z m886 -310 c218 -33 408 -120 535 -247 96 -95
159 -205 213 -375 39 -120 52 -417 26 -593 -45 -306 -195 -527 -440 -650 -173
-86 -335 -112 -682 -112 l-197 1 -1 990 c0 545 1 993 3 997 5 11 458 1 543
-11z"/>
    <path d="M2224 3851 c-2 -2 -4 -585 -4 -1295 l0 -1291 742 2 c409 1 746 2 750
2 4 1 7 69 7 151 0 148 0 150 -22 150 -12 1 -272 2 -577 3 l-555 2 -2 1130 c0
622 -1 1135 -2 1140 -1 10 -327 15 -337 6z"/>
  </g>
</svg>
