<svg xmlns="http://www.w3.org/2000/svg" width="512" height="512"><g fill="#757575" stroke-width=".014"><path d="M45.586 362.64h49.365q15.381-.146 28.564-3.662 13.33-3.516 23.877-10.107 9.96-6.299 18.018-15.234t13.33-19.922q5.127-10.547 7.764-23.145 2.783-12.598 2.783-26.66v-15.674q-.147-14.648-3.076-27.54-2.784-12.89-8.203-23.73-6.006-12.743-16.113-22.411-9.961-9.815-22.998-15.82-9.375-4.395-20.508-6.738-10.986-2.49-23.438-2.637H45.586zm27.539-191.02h21.826q10.107.146 18.604 2.344 8.496 2.05 15.381 5.86 9.668 5.126 16.26 13.476 6.738 8.203 10.693 18.457 3.076 7.91 4.541 17.14 1.611 9.081 1.758 19.042v15.967q-.147 9.815-1.612 18.896-1.464 8.936-4.394 16.7-3.37 9.52-9.228 17.284-5.713 7.617-13.624 12.891-7.47 5.127-17.139 7.91-9.521 2.784-21.24 2.93H73.127z" aria-label="D"/><path d="M220.78 339.64V149.36h-27.1v213.28h131.4v-22.998z" aria-label="L"/><path d="M440.24 147.89v148.39q-.293 9.082-3.223 17.285-2.783 8.057-8.056 14.209-5.42 6.152-13.037 9.815-7.617 3.515-17.285 3.515-9.375 0-16.992-3.076-7.47-3.076-12.891-8.79-5.42-5.566-8.643-13.183-3.076-7.617-3.515-16.553h-27.54q1.319 14.795 6.739 26.807 5.42 11.865 14.502 20.215 8.935 8.496 21.094 13.037 12.305 4.54 27.246 4.54 14.795 0 27.246-4.98 12.598-5.127 21.826-14.209 9.228-8.935 14.502-21.387 5.42-12.45 5.713-27.246V147.89z" aria-label="J"/></g></svg>