<svg xmlns="http://www.w3.org/2000/svg" width="512" height="512"><path fill="#757575" d="M.195 379.41h57.922q18.047-.172 33.516-4.297 15.641-4.125 28.016-11.859 11.688-7.39 21.141-17.875t15.641-23.375q6.016-12.375 9.11-27.156 3.265-14.78 3.265-31.28v-18.392q-.172-17.188-3.61-32.312-3.265-15.125-9.624-27.844-7.047-14.953-18.906-26.297-11.688-11.516-26.984-18.562-11-5.156-24.063-7.906-12.891-2.922-27.5-3.094H.197zm32.312-224.12h25.61q11.858.172 21.827 2.75 9.97 2.406 18.047 6.875 11.344 6.016 19.078 15.812 7.907 9.625 12.547 21.656 3.61 9.281 5.328 20.109 1.891 10.656 2.063 22.344v18.734q-.172 11.516-1.89 22.172-1.72 10.484-5.157 19.594-3.953 11.172-10.828 20.281-6.703 8.938-15.984 15.125-8.765 6.016-20.109 9.281-11.172 3.266-24.922 3.438H32.508zm186.11 197.14V129.16H186.82v250.25h154.17v-26.984zm260.7-223.27v174.11q-.343 10.656-3.78 20.281-3.266 9.453-9.454 16.672-6.36 7.219-15.297 11.516-8.937 4.125-20.281 4.125-11 0-19.938-3.61-8.766-3.609-15.125-10.311-6.36-6.532-10.141-15.47-3.61-8.937-4.125-19.421h-32.312q1.547 17.359 7.906 31.453 6.36 13.922 17.016 23.719 10.484 9.968 24.75 15.297 14.438 5.328 31.97 5.328 17.358 0 31.968-5.844 14.781-6.016 25.61-16.672 10.827-10.484 17.015-25.094 6.36-14.61 6.703-31.97V129.16z" aria-label="DLJ"/></svg>