<svg height="512" viewBox="0 5 7.111 7.111" width="512" xmlns="http://www.w3.org/2000/svg">
  <g fill="#7a7a85" stroke-width=".013889">
    <path
      aria-label="D"
      d="m2.8327 8.5591q0 0.49223-0.20027 0.88794-0.19786 0.39571-0.53325 0.6177-0.27266 0.17132-0.55496 0.22922-0.27989 0.05791-0.71663 0.05791h-0.82762v-3.5928h0.81797q0.50671 0 0.79384 0.077212 0.28955 0.0748 0.49223 0.20751 0.34746 0.22922 0.53807 0.61046 0.19062 0.37882 0.19062 0.90483zm-0.49705-0.00724q0-0.41502-0.13753-0.70698-0.13753-0.29437-0.40778-0.45845-0.19062-0.11582-0.40778-0.16649t-0.54049-0.050671h-0.36435v2.7724h0.36435q0.3185 0 0.55738-0.050671t0.43673-0.18821q0.24853-0.1689 0.374-0.4488 0.12547-0.28231 0.12547-0.70215z"/>
    <path aria-label="L" d="m5.1649 10.352h-2.0823v-3.5928h0.47775v3.1681h1.6046z"/>
    <path
      aria-label="J"
      d="m7.111 9.3928q0 0.47293-0.28955 0.72869-0.28713 0.25577-0.77212 0.25577-0.11582 0-0.31126-0.02172-0.19303-0.0193-0.32333-0.04826v-0.45603h0.026542q0.098928 0.03378 0.2437 0.074799 0.14719 0.041019 0.2992 0.041019 0.22199 0 0.35228-0.050671 0.13271-0.05067 0.19544-0.14477 0.065148-0.096515 0.082038-0.23646 0.019303-0.13995 0.019303-0.32333v-2.0968h-0.76006v-0.38124h1.2378z"/>
  </g>
  <style>
      @media (prefers-color-scheme: light) {
          g {
              fill: #202124;
          }
      }

      @media (prefers-color-scheme: dark) {
          g {
              fill: #e8eaedff;
          }
      }
  </style>
</svg>
