<?xml version="1.0" encoding="UTF-8" standalone="no"?>
<!-- Created with Inkscape (http://www.inkscape.org/) -->

<!--suppress ALL -->

<svg
   height="512"
   id="svg1"
   inkscape:version="1.4 (e7c3feb1, 2024-10-09)"
   sodipodi:docname="favicon_inkscape.svg"
   version="1.1"
   viewBox="0 0 512 512"
   width="512"
   inkscape:export-filename="../public/favicon.svg"
   inkscape:export-xdpi="96"
   inkscape:export-ydpi="96"
   xmlns:inkscape="http://www.inkscape.org/namespaces/inkscape"
   xmlns:sodipodi="http://sodipodi.sourceforge.net/DTD/sodipodi-0.dtd"
   xmlns="http://www.w3.org/2000/svg"
   xmlns:svg="http://www.w3.org/2000/svg"
   xmlns:rdf="http://www.w3.org/1999/02/22-rdf-syntax-ns#"
   xmlns:cc="http://creativecommons.org/ns#">
  <sodipodi:namedview
     bordercolor="#ffffff"
     borderopacity="1"
     id="namedview1"
     inkscape:current-layer="svg1"
     inkscape:cx="-39.5"
     inkscape:cy="220"
     inkscape:deskcolor="#505050"
     inkscape:document-units="px"
     inkscape:lockguides="false"
     inkscape:pagecheckerboard="1"
     inkscape:pageopacity="0"
     inkscape:showpageshadow="0"
     inkscape:window-height="937"
     inkscape:window-maximized="1"
     inkscape:window-width="1920"
     inkscape:window-x="1512"
     inkscape:window-y="25"
     inkscape:zoom="1"
     pagecolor="#505050"
     showgrid="true">
    <inkscape:grid
       color="#0099e5"
       dotted="false"
       empcolor="#0099e5"
       empopacity="0.30196078"
       empspacing="8"
       gridanglex="30"
       gridanglez="30"
       id="grid7"
       opacity="0.14901961"
       originx="0"
       originy="0"
       spacingx="0.013888672"
       spacingy="0.013888672"
       units="px"
       visible="true" />
  </sodipodi:namedview>
  <defs
     id="defs1" />
  <text
     id="text5"
     inkscape:label="DLJ"
     style="font-style:normal;font-variant:normal;font-weight:normal;font-stretch:normal;font-size:352px;line-height:0;font-family:Tahoma;-inkscape-font-specification:Tahoma;text-align:center;letter-spacing:-32px;text-anchor:middle;display:none;fill:#757575;fill-opacity:1;stroke-width:0.0138887"
     x="258.40625"
     xml:space="preserve"
     y="379.40625"><tspan
       id="tspan5"
       sodipodi:role="line"
       style="font-style:normal;font-variant:normal;font-weight:normal;font-stretch:normal;font-size:352px;line-height:0;font-family:'Roboto Mono';-inkscape-font-specification:'Roboto Mono';text-align:center;letter-spacing:-32px;text-anchor:middle;fill:#757575;fill-opacity:1;stroke-width:0.0138887"
       x="0"
       y="0">DLJ</tspan></text>
  <path
     style="font-size:352px;line-height:0;font-family:'Roboto Mono';-inkscape-font-specification:'Roboto Mono';text-align:center;letter-spacing:-32px;text-anchor:middle;fill:#757575;stroke-width:0.0138887"
     d="M 0.1953125,379.40625 H 58.117187 q 18.046875,-0.17188 33.515625,-4.29688 15.640628,-4.125 28.015628,-11.85937 11.6875,-7.39063 21.14062,-17.875 9.45313,-10.48438 15.64063,-23.375 6.01562,-12.375 9.10937,-27.15625 3.26563,-14.78125 3.26563,-31.28125 v -18.39063 q -0.17188,-17.1875 -3.60938,-32.3125 -3.26562,-15.125 -9.625,-27.84375 -7.04687,-14.95312 -18.90625,-26.29687 -11.6875,-11.51563 -26.98437,-18.5625 Q 98.679687,135 85.617187,132.25 q -12.890625,-2.92188 -27.5,-3.09375 H 0.1953125 Z m 32.3124995,-224.125 h 25.609375 q 11.859375,0.17187 21.828125,2.75 9.96875,2.40625 18.046875,6.875 11.343753,6.01562 19.078123,15.8125 7.90625,9.625 12.54688,21.65625 3.60937,9.28125 5.32812,20.10937 1.89063,10.65625 2.0625,22.34375 v 18.73438 q -0.17187,11.51562 -1.89062,22.17187 -1.71875,10.48438 -5.15625,19.59375 -3.95313,11.17188 -10.82813,20.28125 -6.70312,8.9375 -15.98437,15.125 -8.765628,6.01563 -20.109378,9.28125 -11.171875,3.26563 -24.921875,3.4375 H 32.507812 Z M 218.61719,352.42187 V 129.15625 h -31.79688 v 250.25 H 340.99219 V 352.42187 Z M 479.32031,129.15625 v 174.10937 q -0.34375,10.65625 -3.78125,20.28125 -3.26562,9.45313 -9.45312,16.67188 -6.35938,7.21875 -15.29688,11.51562 -8.9375,4.125 -20.28125,4.125 -11,0 -19.9375,-3.60937 -8.76562,-3.60938 -15.125,-10.3125 -6.35937,-6.53125 -10.14062,-15.46875 -3.60938,-8.9375 -4.125,-19.42188 h -32.3125 q 1.54687,17.35938 7.90625,31.45313 6.35937,13.92187 17.01562,23.71875 10.48438,9.96875 24.75,15.29687 14.4375,5.32813 31.96875,5.32813 17.35938,0 31.96875,-5.84375 14.78125,-6.01563 25.60938,-16.67188 10.82812,-10.48437 17.01562,-25.09375 6.35938,-14.60937 6.70313,-31.96875 V 129.15625 Z"
     id="text5-1"
     inkscape:label="DLJ"
     aria-label="DLJ" />
  <metadata
     id="metadata4">
    <rdf:RDF>
      <cc:Work
         rdf:about="">
        <cc:license
           rdf:resource="http://creativecommons.org/licenses/by-nc-sa/4.0/" />
      </cc:Work>
      <cc:License
         rdf:about="http://creativecommons.org/licenses/by-nc-sa/4.0/">
        <cc:permits
           rdf:resource="http://creativecommons.org/ns#Reproduction" />
        <cc:permits
           rdf:resource="http://creativecommons.org/ns#Distribution" />
        <cc:requires
           rdf:resource="http://creativecommons.org/ns#Notice" />
        <cc:requires
           rdf:resource="http://creativecommons.org/ns#Attribution" />
        <cc:prohibits
           rdf:resource="http://creativecommons.org/ns#CommercialUse" />
        <cc:permits
           rdf:resource="http://creativecommons.org/ns#DerivativeWorks" />
        <cc:requires
           rdf:resource="http://creativecommons.org/ns#ShareAlike" />
      </cc:License>
    </rdf:RDF>
  </metadata>
</svg>
