<?xml version="1.0" encoding="UTF-8" standalone="no"?>
<!-- Created with Inkscape (http://www.inkscape.org/) -->

<svg
   width="625.07947"
   height="111.31316"
   viewBox="0 0 625.07947 111.31316"
   version="1.1"
   id="svg1"
   inkscape:export-filename="hi_there.svg"
   inkscape:export-xdpi="96"
   inkscape:export-ydpi="96"
   inkscape:version="1.4 (e7c3feb1, 2024-10-09)"
   sodipodi:docname="hi_there_inkscape.svg"
   xmlns:inkscape="http://www.inkscape.org/namespaces/inkscape"
   xmlns:sodipodi="http://sodipodi.sourceforge.net/DTD/sodipodi-0.dtd"
   xmlns="http://www.w3.org/2000/svg"
   xmlns:svg="http://www.w3.org/2000/svg">
  <sodipodi:namedview
     id="namedview1"
     pagecolor="#505050"
     bordercolor="#ffffff"
     borderopacity="1"
     inkscape:showpageshadow="0"
     inkscape:pageopacity="0"
     inkscape:pagecheckerboard="1"
     inkscape:deskcolor="#505050"
     inkscape:document-units="px"
     inkscape:zoom="1.6083591"
     inkscape:cx="303.10395"
     inkscape:cy="105.07604"
     inkscape:window-width="1920"
     inkscape:window-height="1027"
     inkscape:window-x="1512"
     inkscape:window-y="25"
     inkscape:window-maximized="0"
     inkscape:current-layer="layer1" />
  <defs
     id="defs1" />
  <g
     inkscape:label="Layer 1"
     inkscape:groupmode="layer"
     id="layer1"
     transform="translate(-13.287772,-41.063522)">
    <path
       d="M 180.60039,131.85805 V 64.318985 H 167.70488 V 92.011856 H 148.59355 V 64.318985 h -12.94189 v 67.539065 h 12.94189 v -29.27002 h 19.11133 v 29.27002 z"
       id="text29"
       style="font-weight:bold;font-size:95px;font-family:'Roboto Mono';-inkscape-font-specification:'Roboto Mono Bold';fill-rule:evenodd"
       aria-label="H" />
    <path
       d="m 196.92851,81.667618 v 10.529785 h 14.28711 v 29.177247 h -14.28711 v 10.4834 h 40.91309 v -10.4834 H 224.25029 V 81.667618 Z m 13.35938,-12.849121 q 0,1.484375 0.51025,2.783203 0.55664,1.252441 1.53076,2.133789 0.97412,0.927734 2.31934,1.437988 1.3916,0.510254 3.06152,0.510254 3.43262,0 5.42725,-1.901855 2.04101,-1.948243 2.04101,-4.963379 0,-3.015137 -2.04101,-4.916992 -1.99463,-1.948243 -5.42725,-1.948243 -1.66992,0 -3.06152,0.510254 -1.34522,0.510254 -2.31934,1.391602 -0.97412,0.927734 -1.53076,2.226562 -0.51025,1.252442 -0.51025,2.736817 z"
       id="text28"
       style="font-weight:bold;font-size:95px;font-family:'Roboto Mono';-inkscape-font-specification:'Roboto Mono Bold';fill-rule:evenodd"
       aria-label="i" />
    <path
       d="m 331.17166,69.375137 h -12.89551 v 12.292481 h -11.45752 v 9.509277 h 11.45752 v 22.822265 q 0,4.96338 1.29883,8.53516 1.29883,3.52539 3.71094,5.79834 2.36572,2.31933 5.70557,3.43261 3.38623,1.0669 7.51464,1.0669 2.13379,0 4.31397,-0.23194 2.22656,-0.18554 4.26758,-0.55664 2.04101,-0.37109 3.85009,-0.92773 1.80909,-0.60303 3.1543,-1.3916 l -1.25244,-8.85986 q -0.88135,0.23193 -2.13379,0.46386 -1.20605,0.23194 -2.59766,0.41748 -1.43798,0.23194 -3.01513,0.3711 -1.53076,0.13916 -3.01514,0.13916 -2.04101,0 -3.71094,-0.46387 -1.62353,-0.46387 -2.7832,-1.57715 -1.15967,-1.06689 -1.80908,-2.87598 -0.60303,-1.85546 -0.60303,-4.59228 V 91.176895 h 18.74024 v -9.509277 h -18.74024 z"
       id="text27"
       style="font-weight:bold;font-size:95px;font-family:'Roboto Mono';-inkscape-font-specification:'Roboto Mono Bold';fill-rule:evenodd"
       aria-label="t" />
    <path
       d="M 377.41922,88.579239 V 60.608047 h -12.89551 v 71.250003 h 12.89551 V 95.63002 q 0.74219,-0.974121 1.62354,-1.762695 0.92773,-0.788574 2.04101,-1.345215 1.20606,-0.649414 2.69043,-0.974121 1.48438,-0.324707 3.20068,-0.324707 2.22657,0 3.98926,0.603027 1.7627,0.556641 3.01514,1.762696 1.25244,1.206054 1.90185,3.154296 0.6958,1.948243 0.6958,4.638669 v 30.47608 h 12.89551 v -30.3833 q 0,-5.520023 -1.34521,-9.416507 -1.29883,-3.942871 -3.66455,-6.447754 -2.36573,-2.504883 -5.65918,-3.664551 -3.29346,-1.206055 -7.23633,-1.206055 -2.69043,0 -5.10254,0.788575 -2.41211,0.788574 -4.40674,2.226562 -1.29883,0.927735 -2.50488,2.180176 -1.15967,1.206055 -2.13379,2.644043 z"
       id="text26"
       style="font-weight:bold;font-size:95px;font-family:'Roboto Mono';-inkscape-font-specification:'Roboto Mono Bold';fill-rule:evenodd"
       aria-label="h" />
    <path
       d="m 445.88605,132.78578 q 7.28271,0 12.61718,-2.82959 5.33448,-2.82959 7.79297,-6.30859 l -6.44775,-6.95801 q -2.22656,2.87598 -5.79834,4.31397 -3.57178,1.43798 -7.37549,1.43798 -2.69043,0 -4.96338,-0.83496 -2.27295,-0.83496 -4.03564,-2.36572 -1.71631,-1.48438 -2.73682,-3.29346 -1.02051,-1.85547 -1.66992,-4.8706 v -0.13916 h 34.04785 V 105.464 q 0,-5.520015 -1.53076,-10.065913 -1.53076,-4.592286 -4.45313,-7.839356 -2.96875,-3.24707 -7.23632,-5.009766 -4.22119,-1.809082 -9.64844,-1.809082 -5.2417,0 -9.69483,1.901856 -4.45312,1.901855 -7.70019,5.334473 -3.24707,3.432617 -5.05615,8.210449 -1.80908,4.731449 -1.80908,10.483399 v 1.85547 q 0,5.05615 1.80908,9.50928 1.85547,4.40673 5.2417,7.6538 3.38623,3.29346 8.11767,5.19532 4.73145,1.90185 10.52979,1.90185 z m -1.53076,-41.608885 q 2.45849,0 4.31396,0.788574 1.90186,0.742188 3.20068,2.041016 1.29883,1.345215 2.04102,3.154297 0.74219,1.809082 0.74219,3.850098 v 1.02051 h -21.15235 q 0.46387,-2.458499 1.39161,-4.453128 0.92773,-1.994629 2.31933,-3.432617 1.34522,-1.437988 3.1543,-2.180176 1.80908,-0.788574 3.98926,-0.788574 z"
       id="text25"
       style="font-weight:bold;font-size:95px;font-family:'Roboto Mono';-inkscape-font-specification:'Roboto Mono Bold';fill-rule:evenodd"
       aria-label="e" />
    <path
       d="m 514.58475,80.739883 q -5.05616,0 -9.32373,2.458497 -4.26758,2.412109 -7.3291,6.679687 l -0.0928,-1.113281 -0.51025,-7.097168 h -12.01416 v 50.190432 h 12.89551 v -30.15137 q 0.88134,-2.133789 2.22656,-3.710937 1.34521,-1.577149 3.24707,-2.597656 1.57715,-0.881348 3.57178,-1.298829 2.04101,-0.463867 4.54589,-0.463867 2.41211,0 5.05616,0.324707 2.69043,0.278321 5.2417,0.881348 l 1.90185,-12.849121 q -1.53076,-0.463867 -4.03564,-0.834961 -2.4585,-0.417481 -5.38086,-0.417481 z"
       id="text24"
       style="font-weight:bold;font-size:95px;font-family:'Roboto Mono';-inkscape-font-specification:'Roboto Mono Bold';fill-rule:evenodd"
       aria-label="r" />
    <path
       d="m 559.9046,132.78578 q 7.28272,0 12.61719,-2.82959 5.33447,-2.82959 7.79297,-6.30859 l -6.44776,-6.95801 q -2.22656,2.87598 -5.79834,4.31397 -3.57177,1.43798 -7.37548,1.43798 -2.69043,0 -4.96338,-0.83496 -2.27295,-0.83496 -4.03565,-2.36572 -1.71631,-1.48438 -2.73681,-3.29346 -1.02051,-1.85547 -1.66993,-4.8706 v -0.13916 h 34.04786 V 105.464 q 0,-5.520015 -1.53077,-10.065913 -1.53076,-4.592286 -4.45312,-7.839356 -2.96875,-3.24707 -7.23633,-5.009766 -4.22119,-1.809082 -9.64844,-1.809082 -5.2417,0 -9.69482,1.901856 -4.45313,1.901855 -7.7002,5.334473 -3.24707,3.432617 -5.05615,8.210449 -1.80908,4.731449 -1.80908,10.483399 v 1.85547 q 0,5.05615 1.80908,9.50928 1.85547,4.40673 5.2417,7.6538 3.38623,3.29346 8.11768,5.19532 4.73144,1.90185 10.52978,1.90185 z m -1.53076,-41.608885 q 2.4585,0 4.31397,0.788574 1.90185,0.742188 3.20068,2.041016 1.29883,1.345215 2.04101,3.154297 0.74219,1.809082 0.74219,3.850098 v 1.02051 h -21.15234 q 0.46387,-2.458499 1.3916,-4.453128 0.92773,-1.994629 2.31934,-3.432617 1.34521,-1.437988 3.15429,-2.180176 1.80908,-0.788574 3.98926,-0.788574 z"
       id="text23"
       style="font-weight:bold;font-size:95px;font-family:'Roboto Mono';-inkscape-font-specification:'Roboto Mono Bold';fill-rule:evenodd"
       aria-label="e" />
    <path
       d="m 620.39288,108.24721 0.74219,-43.928225 h -13.22021 l 0.74218,43.928225 z m -13.40576,17.30224 q 0,2.96875 1.99463,5.00977 1.99463,1.99463 5.52002,1.99463 3.43262,0 5.47363,-1.99463 2.04102,-2.04102 2.04102,-5.00977 0,-3.06152 -2.04102,-5.10254 -2.04101,-2.04101 -5.47363,-2.04101 -3.52539,0 -5.52002,2.04101 -1.99463,2.04102 -1.99463,5.10254 z"
       id="text22"
       style="font-weight:bold;font-size:95px;font-family:'Roboto Mono';-inkscape-font-specification:'Roboto Mono Bold';fill-rule:evenodd"
       aria-label="!" />
    <g
       id="g1"
       transform="matrix(0.7837421,0,0,0.7837421,18.417377,20.916489)">
      <path
         d="m 39.11,79.56 c -1.1,1.03 -2.21,-0.2 -2.21,-0.2 0,0 -18.48,-19.58 -19.68,-20.46 -1.69,-1.23 -5.31,-3.16 -8.93,0.57 -1.51,1.55 -3.97,5 0.6,10.56 0.99,1.2 29.78,31.54 31.46,33.18 0,0 13.3,12.94 21.35,17.81 2.23,1.35 4.74,2.78 7.67,3.78 2.92,1 6.22,1.69 9.7,1.69 3.48,0.04 7.09,-0.63 10.5,-1.88 3.41,-1.26 6.59,-3.09 9.48,-5.2 0.71,-0.54 1.43,-1.08 2.1,-1.66 l 1.94,-1.6 c 1.35,-1.13 2.61,-2.32 3.82,-3.53 2.43,-2.42 4.62,-5.01 6.55,-7.66 1.92,-2.66 3.55,-5.41 4.85,-8.15 1.3,-2.74 2.21,-5.49 2.76,-8.09 0.58,-2.59 0.74,-5.04 0.65,-7.18 -0.02,-2.14 -0.45,-3.97 -0.8,-5.43 -0.4,-1.46 -0.83,-2.55 -1.17,-3.27 -0.33,-0.72 -0.51,-1.1 -0.51,-1.1 v 0 c -0.46,-1.29 -0.9,-2.52 -1.29,-3.63 -1.1,-3.13 -2.37,-6.64 -3.69,-10.25 -0.56,-1.53 -0.82,-2.22 -0.82,-2.22 l 0.01,0.03 C 108.6,42.5 103.39,28.93 103.39,28.93 c -0.79,-2.39 -3.7,-3.22 -5.84,-1.68 -6.18,4.44 -8.07,10.92 -5.89,17.83 l 5.59,15.32 c 0.79,1.71 -1.39,3.69 -2.85,2.5 C 89.81,59.16 80.1,48.85 80.1,48.85 75.76,44.69 51.27,19.58 49.63,18.05 46.33,14.98 42.17,13.4 39,15.73 c -3.24,2.38 -4.14,6.06 -1.01,10.08 0.85,1.09 25.6,27.24 25.6,27.24 1.44,1.51 -0.26,3.65 -1.85,2.18 0,0 -30.79,-32.12 -32.18,-33.62 -3.15,-3.42 -8.21,-4.17 -11.21,-1.35 -2.93,2.75 -2.86,7.26 0.34,10.8 1.02,1.12 22.71,24.02 31.39,33.4 0.58,0.63 1.03,1.47 0.17,2.26 -0.01,0.01 -0.88,0.95 -2,-0.25 C 45.89,63.95 22.32,39.39 21.01,38.06 18,35 13.96,33.55 10.71,36.53 7.75,39.24 7.27,43.97 10.67,47.31 l 28.55,30.18 c 0,0 0.93,1.1 -0.11,2.07 z"
         style="fill:#fac036;stroke-width:1.00049;stroke-dasharray:none"
         id="path1"
         transform="matrix(0.89056443,0,0,0.89056443,7.7130388,39.727676)" />
      <path
         d="m 85.46,54.4 2.41,2.58 c 0,0 -13.79,13.31 -4.39,33.75 0,0 1.22,2.59 -0.38,3.02 0,0 -1.4,0.78 -3,-3.2 0,-0.01 -9.49,-19.42 5.36,-36.15 z"
         style="fill:#e48c15;stroke-width:1.00049;stroke-dasharray:none"
         id="path2"
         transform="matrix(0.89056443,0,0,0.89056443,7.7130388,39.727676)" />
      <path
         d="m 64.067955,48.811434 c 0,0 5.17418,0.783696 9.965416,5.913347 4.791237,5.138557 7.008742,11.73764 7.008742,11.73764"
         style="fill:none;stroke:#808080;stroke-width:3.56226;stroke-linecap:round;stroke-miterlimit:10;stroke-opacity:1"
         id="path3" />
      <path
         d="m 76.678348,42.844652 c 0,0 4.337048,2.181883 7.685571,7.569798 3.348522,5.387914 4.158936,11.621865 4.158936,11.621865"
         style="fill:none;stroke:#808080;stroke-width:3.56226;stroke-linecap:round;stroke-miterlimit:10;stroke-opacity:1"
         id="path4" />
      <path
         d="m 39.515094,138.33988 c 0,0 -5.218708,0.34732 -10.998471,-3.64241 -5.779763,-3.98972 -9.368738,-9.95651 -9.368738,-9.95651"
         style="fill:none;stroke:#808080;stroke-width:3.56226;stroke-linecap:round;stroke-miterlimit:10;stroke-opacity:1"
         id="path5" />
      <path
         d="m 35.792535,147.09413 c 0,0 -4.844671,0.20483 -10.401793,-2.86762 -5.557122,-3.07244 -9.297493,-8.12194 -9.297493,-8.12194"
         style="fill:none;stroke:#808080;stroke-width:3.56226;stroke-linecap:round;stroke-miterlimit:10;stroke-opacity:1"
         id="path6" />
    </g>
  </g>
</svg>
