<?xml version="1.0" encoding="UTF-8" standalone="no"?>
<!-- Generator: Adobe Illustrator 14.0.0, SVG Export Plug-In . SVG Version: 6.00 Build 43363)  -->

<svg
  version="1.1"
  id="Capa_1"
  x="0px"
  y="0px"
  width="180"
  height="180"
  viewBox="-357.64 420.945 180 180"
  enable-background="new -357.64 420.945 270 150"
  xml:space="preserve"
  sodipodi:docname="LogotipoUAB.svg"
  inkscape:export-xdpi="96"
  inkscape:export-ydpi="96"
  inkscape:version="1.3 (0e150ed, 2023-07-21)"
  xmlns:inkscape="http://www.inkscape.org/namespaces/inkscape"
  xmlns:sodipodi="http://sodipodi.sourceforge.net/DTD/sodipodi-0.dtd"
  xmlns="http://www.w3.org/2000/svg"
><defs
   id="defs4" /><sodipodi:namedview
   id="namedview4"
   pagecolor="#505050"
   bordercolor="#ffffff"
   borderopacity="1"
   inkscape:showpageshadow="0"
   inkscape:pageopacity="0"
   inkscape:pagecheckerboard="1"
   inkscape:deskcolor="#505050"
   inkscape:zoom="2.7"
   inkscape:cx="79.074074"
   inkscape:cy="125"
   inkscape:window-width="1392"
   inkscape:window-height="916"
   inkscape:window-x="1731"
   inkscape:window-y="60"
   inkscape:window-maximized="0"
   inkscape:current-layer="g4" />&#10;<g
   id="g4"
   transform="translate(-51.401,-15.000552)">&#10;	&#10;	&#10;	<path
   fill="#231f20"
   d="m -251.8375,497.77306 h -14.375 v 33.707 c 0,7.684 -2.81,10.905 -9.335,10.905 -6.94,0 -9.915,-3.304 -9.915,-10.988 v -33.624 h -14.375 v 32.634 c 0,6.691 0.661,10.326 2.562,13.797 3.635,6.691 10.74,9.914 21.48,9.914 8.096,0 13.714,-1.653 17.844,-5.453 2.479,-2.396 4.214,-5.37 5.205,-8.84 0.662,-2.562 0.909,-4.957 0.909,-9.336 v -32.716"
   id="path1"
   style="fill:#857a7c;fill-opacity:1" /><path
   fill-rule="evenodd"
   clip-rule="evenodd"
   fill="#b96a05"
   d="m -210.7325,502.12128 c 0,0 1.649,15.557 1.296,17.089 0,0 -0.354,3.771 5.303,17.323 5.658,13.553 2.004,4.243 6.718,14.966 0,0 1.297,1.887 2.122,3.064 l 2.121,-16.97 c 0.354,-6.128 0.235,-16.145 0.235,-16.145 0.354,-0.236 1.65,-16.853 1.414,-18.148 -0.235,-1.297 -0.117,-5.774 -0.117,-5.774 -17.325,-0.708 -21.214,0.706 -21.214,0.706 -12.728,-0.826 -26.987,-0.826 -26.987,-0.826 -0.825,2.947 -1.296,7.308 -1.18,8.722 0.118,1.415 0.354,3.536 0.118,7.189 -0.234,3.652 0.591,14.259 0.591,14.259 l -0.825,-0.235 c 0.59,10.018 -0.236,25.337 -0.236,25.337 h 11.549 c 0.589,-0.707 12.021,-28.518 12.021,-28.518 4.125,-8.486 7.071,-22.039 7.071,-22.039 m -9.193,28.991 10.607,-2.475 2.121,2.003 -1.179,3.771 z"
   id="path2" /><path
   fill-rule="evenodd"
   clip-rule="evenodd"
   fill="#231f20"
   d="m -181.0535,498.43506 v 55.021 h 28.173 c 6.69,0 11.07,-1.155 14.539,-4.047 3.801,-2.975 5.701,-7.188 5.701,-12.393 0,-6.609 -2.975,-11.069 -8.923,-13.302 l -0.909,-0.33 c 4.792,-2.478 7.188,-6.195 7.188,-11.153 0,-5.122 -2.643,-9.501 -7.104,-11.731 -2.809,-1.404 -6.526,-2.065 -12.228,-2.065 h -26.437 m 14.375,31.064 h 10.988 c 5.865,0 8.509,1.981 8.509,6.36 0,4.297 -2.561,6.279 -8.179,6.279 h -11.318 z m 0,-20.159 h 9.914 c 5.205,0 7.519,1.652 7.519,5.452 0,3.388 -2.563,5.288 -7.188,5.205 h -10.244 v -10.657 z"
   id="path3"
   style="fill:#877779;fill-opacity:1" />&#10;	&#10;</g>&#10;</svg>
